<svg width="102" height="131" fill="none" xmlns="http://www.w3.org/2000/svg"><path d="M100.464 93.187c-.69 11.415-5.006 24.559-10.184 35.281-.863 1.73-2.934 1.903-4.142.519-5.006-6.053-12.6-14.7-27.1-24.385-1.553-1.038-1.38-3.632.346-4.324 12.082-5.361 25.027-9.858 38.145-12.452 1.554-.346 2.935.865 2.935 2.421v2.94z" fill="#3C7FCD"/><path d="M101.499 93.36s0 .519-.173 1.383c-.172.865-.345 2.422-.517 4.151-.691 3.632-1.726 8.648-3.625 14.528-.863 2.94-2.071 6.226-3.28 9.512-.69 1.729-1.38 3.286-2.07 5.015l-.346.692c0 .173 0 .173-.173.346 0 .173 0 .173-.172.346-.518.692-1.036 1.038-1.726 1.383-1.209.519-2.934.346-3.97-.691-.345-.346-.518-.519-.518-.692l-.518-.346-.863-1.211c-.69-.691-1.38-1.383-1.898-2.248-1.381-1.384-2.762-2.94-4.143-4.151-2.934-2.767-6.041-5.361-9.148-7.782-3.28-2.422-6.559-4.843-9.838-6.918l-.346-.173-.172-.173-.345-.173-.173-.173-.345-.346a2.388 2.388 0 01-.518-.692c-.518-.864-.863-1.729-.863-2.767 0-1.037.173-1.902.69-2.767.518-.865 1.381-1.556 2.244-1.902 1.726-.865 3.625-1.557 5.35-2.422 7.078-2.94 13.982-5.534 20.196-6.745 3.106-.691 5.868-1.21 8.285-1.556 1.208-.173 2.416-.346 3.452-.519.517 0 1.035-.173 1.553-.173.863 0 1.554.173 2.244.519 1.208.692 1.726 1.902 1.899 2.94v1.902c0 1.211-.173 1.73-.173 1.903zm-2.071-.173v-3.286c0-.346-.345-.692-.69-.865-.173-.173-.519-.173-.519 0-.345 0-.862.173-1.38.346-1.036.346-2.072.692-3.28 1.038-2.416.692-5.005 1.556-7.94 2.594-5.695 2.075-12.427 4.324-19.504 7.091-1.726.692-3.624 1.383-5.35 2.248-.173 0 0 0 0 0v.173l.172.173c-.172-.173 0 0-.172 0l.172.173.345.173c3.28 2.421 6.732 4.842 9.839 7.61 3.107 2.767 6.214 5.534 8.975 8.647 1.381 1.556 2.762 2.94 3.97 4.497.69.691 1.208 1.556 1.899 2.248.517.692 1.208 1.383 1.726 2.075.345.346.863.519 1.208.346.172 0 .518-.346.518-.346l.172-.173s0-.173.173-.173l.345-.691c.863-1.73 1.554-3.286 2.244-4.843 1.38-3.286 2.59-6.399 3.452-9.166a63.521 63.521 0 002.244-7.956c.518-2.421.863-4.496 1.208-6.226.173-1.73.345-3.113.518-4.15-.345-1.211-.345-1.557-.345-1.557z" fill="#3C7FCD"/><path d="M43.85 11.557c13.462 8.647 25.717 19.716 34.002 33.378C86.31 58.598 90.798 73.99 88.554 89.901L71.81 95.436c-4.66-13.49-13.29-25.077-23.82-34.417-10.528-9.339-22.783-16.602-35.383-22.828.518-1.211 20.195-24.213 31.069-26.807" fill="#3C7FCD"/><path d="M44.54 10.692c1.726 1.037 3.28 2.248 5.005 3.286 1.554 1.21 3.28 2.421 4.833 3.632 1.554 1.21 3.107 2.594 4.66 3.805 1.554 1.383 2.935 2.594 4.488 3.977 2.934 2.767 5.696 5.707 8.113 8.82 2.589 3.114 5.005 6.4 7.076 9.685l3.107 5.189c1.036 1.73 1.899 3.632 2.59 5.361a64.231 64.231 0 014.142 11.415c.518 1.902 1.035 3.978 1.38 5.88l.518 2.94.346 3.113.172 3.113v3.113l-.172 3.113-.346 3.113c0 .519-.517 1.038-1.035 1.21l-16.743 5.708c-.863.346-1.899-.173-2.244-1.038-.69-1.556-1.208-3.113-1.898-4.67-.69-1.556-1.554-3.112-2.244-4.669-.863-1.556-1.726-2.94-2.59-4.496a63.743 63.743 0 00-2.934-4.324c-1.035-1.384-2.07-2.767-3.106-3.978-1.036-1.383-2.244-2.594-3.453-3.805l-3.624-3.632c-1.208-1.21-2.59-2.42-3.797-3.458l-2.072-1.73-1.898-1.556-4.143-3.113c-1.38-1.038-2.761-2.076-4.142-2.94-1.381-1.038-2.935-1.903-4.315-2.768-2.935-1.902-5.869-3.632-8.976-5.361a233.657 233.657 0 00-9.148-4.843l-.172-.172c-1.726-1.038-2.244-2.422-1.726-3.46.172-.345.517-.864.69-1.037l.518-.519c.345-.346.518-.692.863-1.038l1.726-2.075c1.208-1.383 2.416-2.594 3.624-3.805 2.417-2.421 5.006-5.015 7.595-7.264 1.38-1.21 2.59-2.248 4.143-3.459l2.07-1.556c.691-.519 1.382-1.038 2.245-1.557l2.244-1.383 2.416-1.384 2.589-1.037c.863-.346 1.726-.52 2.762-.692.345-.346 1.035 0 1.035.692.173.518-.172 1.037-.518 1.21l-.172.173c-.69.346-1.553.52-2.244 1.038-.69.346-1.38.865-2.071 1.21l-2.071 1.384-1.9 1.557c-.69.518-1.207 1.037-1.898 1.73-.69.518-1.208 1.037-1.898 1.729-1.209 1.21-2.417 2.248-3.625 3.459-2.417 2.42-4.833 4.842-7.077 7.436-1.208 1.21-2.244 2.594-3.452 3.805l-1.553 1.902c-.346.346-.518.692-.69 1.038l-.346.519c0 .173 0 0 0 0l-1.553-3.459c6.386 3.113 12.772 6.4 18.813 10.377 2.935 1.902 6.042 3.978 8.803 6.053 1.381 1.038 2.762 2.248 4.143 3.286l2.071 1.73 1.899 1.729c1.38 1.21 2.589 2.421 3.97 3.805 1.208 1.21 2.416 2.594 3.624 3.977 1.208 1.384 2.417 2.768 3.452 4.151 1.036 1.384 2.244 2.94 3.28 4.324 1.035 1.556 2.071 2.94 2.934 4.497l2.59 4.669c.862 1.556 1.552 3.286 2.243 4.843.69 1.729 1.38 3.286 1.899 5.015l-2.244-1.21 16.915-5.19L87 89.038l.346-2.94.172-2.94v-5.88l-.172-2.94L87 71.395c-.345-1.902-.69-3.805-1.208-5.707-.863-3.805-2.244-7.437-3.797-11.069-.863-1.73-1.554-3.632-2.59-5.361-.862-1.73-1.898-3.46-2.933-5.188-2.072-3.286-4.316-6.572-6.732-9.513-2.416-3.113-5.178-5.88-7.94-8.647-1.38-1.384-2.934-2.594-4.315-3.978-1.553-1.21-3.107-2.42-4.66-3.632-3.107-2.42-6.387-4.67-9.666-6.744-.518-.346-.69-1.038-.345-1.557.517.346 1.208.346 1.726.692 0-.173 0-.173 0 0z" fill="#3C7FCD"/><path d="M85.792 82.292s.345-.173.345-.692c0-.52.173-1.21.173-2.076v-3.113c-.173-1.21-.173-2.594-.518-3.977-.518-2.94-1.38-6.4-2.762-9.858-1.38-3.46-3.28-7.091-5.35-10.377-2.072-3.46-4.488-6.572-6.732-9.512-2.416-2.94-4.66-5.534-6.559-7.783-1.898-2.248-3.625-4.15-4.66-5.534-1.208-1.384-1.726-2.076-1.726-2.076-.173-.172-.173-.345 0-.518.172-.173.345-.173.518 0 0 0 .69.692 2.07 1.902 1.21 1.21 3.108 2.94 5.179 5.189 2.071 2.248 4.315 4.842 6.731 7.782 2.244 2.94 4.66 6.4 6.56 9.858 2.07 3.459 3.797 7.264 5.005 10.723a29.622 29.622 0 011.553 5.188c.518 1.73.863 3.286 1.036 4.843.173 1.556.345 2.94.518 4.15 0 1.211.172 2.249.172 3.113v2.768c0 .172-.517.345-.69.345-.518 0-.863-.172-.863-.345zM53.515 22.279c-.518.346-.863.864-1.208 1.556l-.863-1.038c.172-.345.345-.518.69-.864.173-.173.518-.346 1.036-.346.172.173.345.519.345.692 0 .518-.173.864-.345 1.037-.173.173-.518.346-.863.52l-.345.172c-.346 0-.69 0-.863-.346-.173-.346 0-.691.345-.864.69-.173 1.208-.52 1.726-1.038.172-.173.345-.173.518 0 .172.173.172.346-.173.519.173 0 .173 0 0 0zm-2.416-3.805c-.518.346-.863.692-1.209 1.384l-.69-1.038c.173-.173.345-.519.69-.692.173-.172.518-.346 1.036 0 .173.173.345.346.345.692 0 .519-.172.692-.518.865-.172.173-.517.173-.863.346l-.517.173c-.346 0-.69-.173-.69-.52 0-.345.172-.69.344-.69a3.335 3.335 0 001.554-.866c.172-.172.345-.172.518 0 .172-.172.172.173 0 .346z" fill="#fff"/><path d="M90.464 83.187c-.69 11.415-5.006 24.559-10.184 35.281-.863 1.73-2.934 1.903-4.142.519-5.006-6.053-12.6-14.7-27.1-24.385-1.553-1.038-1.38-3.632.346-4.324 12.082-5.361 25.027-9.858 38.145-12.452 1.554-.346 2.935.865 2.935 2.421v2.94z" fill="#E589CC"/><path d="M91.499 83.36s0 .519-.173 1.383c-.172.865-.345 2.422-.517 4.151-.69 3.632-1.726 8.648-3.625 14.528-.863 2.94-2.071 6.226-3.28 9.512-.69 1.729-1.38 3.286-2.07 5.015l-.346.692c0 .173 0 .173-.173.346 0 .173 0 .173-.172.346-.518.692-1.036 1.038-1.726 1.383-1.209.519-2.934.346-3.97-.691-.345-.346-.518-.519-.518-.692l-.518-.346-.863-1.211c-.69-.691-1.38-1.383-1.898-2.248-1.381-1.384-2.762-2.94-4.143-4.151-2.934-2.767-6.041-5.361-9.148-7.782-3.28-2.422-6.559-4.843-9.838-6.918l-.346-.173-.172-.173-.345-.173-.173-.173-.345-.346a2.386 2.386 0 01-.518-.692c-.518-.864-.863-1.73-.863-2.767 0-1.038.173-1.902.69-2.767.518-.865 1.381-1.556 2.244-1.902 1.726-.865 3.625-1.557 5.35-2.422 7.078-2.94 13.982-5.534 20.196-6.745 3.106-.691 5.868-1.21 8.285-1.556 1.208-.173 2.416-.346 3.452-.519.517 0 1.035-.173 1.553-.173.863 0 1.554.173 2.244.519 1.208.692 1.726 1.902 1.899 2.94v1.902c0 1.211-.173 1.73-.173 1.903zm-2.071-.173v-3.286c0-.346-.345-.692-.69-.865-.173-.173-.519-.173-.519 0-.345 0-.862.173-1.38.346-1.036.346-2.072.692-3.28 1.038-2.416.692-5.005 1.556-7.94 2.594-5.695 2.075-12.427 4.324-19.504 7.09-1.726.693-3.625 1.384-5.35 2.25-.173 0 0 0 0 0v.172l.172.173c-.172-.173 0 0-.172 0l.172.173.345.173c3.28 2.421 6.732 4.842 9.839 7.61 3.107 2.767 6.214 5.534 8.975 8.647 1.381 1.556 2.762 2.94 3.97 4.497.69.691 1.208 1.556 1.899 2.248.517.692 1.208 1.383 1.726 2.075.345.346.863.519 1.208.346.172 0 .518-.346.518-.346l.172-.173s0-.173.173-.173l.345-.691c.863-1.73 1.554-3.286 2.244-4.843 1.38-3.286 2.59-6.399 3.452-9.166a63.551 63.551 0 002.244-7.956c.518-2.42.863-4.496 1.208-6.226.173-1.73.345-3.113.518-4.15-.345-1.211-.345-1.557-.345-1.557z" fill="#E589CC"/><path d="M33.85 1.557c13.462 8.647 25.717 19.716 34.002 33.378C76.31 48.598 80.798 63.99 78.554 79.901L61.81 85.436c-4.66-13.49-13.29-25.077-23.82-34.417C27.464 41.68 15.209 34.418 2.609 28.192 3.126 26.98 22.803 3.977 33.677 1.384" fill="#E589CC"/><path d="M34.54.692c1.726 1.037 3.28 2.248 5.005 3.286 1.554 1.21 3.28 2.421 4.833 3.632 1.554 1.21 3.107 2.594 4.66 3.804 1.554 1.384 2.935 2.595 4.488 3.978 2.934 2.767 5.696 5.707 8.113 8.82 2.589 3.114 5.005 6.4 7.076 9.686l3.107 5.188c1.036 1.73 1.899 3.632 2.59 5.361a64.231 64.231 0 014.142 11.415c.518 1.902 1.035 3.977 1.38 5.88l.518 2.94.346 3.113.172 3.113v3.113l-.172 3.113-.346 3.113c0 .519-.517 1.038-1.035 1.21l-16.743 5.708c-.863.346-1.898-.173-2.244-1.038-.69-1.556-1.208-3.113-1.898-4.67-.69-1.556-1.554-3.112-2.244-4.669-.863-1.556-1.726-2.94-2.59-4.496a63.743 63.743 0 00-2.934-4.324c-1.035-1.384-2.07-2.767-3.106-3.978-1.036-1.383-2.244-2.594-3.453-3.805l-3.624-3.632c-1.208-1.21-2.59-2.42-3.797-3.458l-2.072-1.73-1.898-1.556-4.143-3.113c-1.38-1.038-2.761-2.076-4.142-2.94-1.381-1.038-2.935-1.903-4.315-2.768-2.935-1.902-5.869-3.632-8.976-5.361a233.608 233.608 0 00-9.148-4.843l-.172-.172C.192 29.573-.326 28.19.192 27.151c.172-.345.517-.864.69-1.037l.518-.519c.345-.346.518-.692.863-1.038l1.726-2.075c1.208-1.384 2.416-2.594 3.624-3.805 2.417-2.421 5.006-5.015 7.595-7.264 1.38-1.21 2.59-2.248 4.143-3.458l2.07-1.557c.691-.519 1.382-1.038 2.245-1.556l2.244-1.384 2.416-1.384 2.589-1.037c.863-.346 1.726-.52 2.762-.692.345-.346 1.035 0 1.035.692.173.519-.172 1.037-.518 1.21l-.172.173c-.69.346-1.553.52-2.244 1.038-.69.346-1.38.865-2.071 1.21l-2.071 1.384-1.9 1.557c-.69.518-1.207 1.037-1.898 1.73-.69.518-1.208 1.037-1.898 1.729-1.209 1.21-2.417 2.248-3.625 3.458-2.417 2.422-4.833 4.843-7.077 7.437-1.208 1.21-2.244 2.594-3.452 3.805L6.233 27.67c-.346.346-.518.692-.69 1.038l-.346.519c0 .173 0 0 0 0l-1.553-3.459c6.386 3.113 12.772 6.4 18.813 10.377 2.935 1.902 6.042 3.978 8.803 6.053 1.381 1.038 2.762 2.248 4.143 3.286l2.071 1.73 1.899 1.729c1.38 1.21 2.589 2.421 3.97 3.805 1.208 1.21 2.416 2.594 3.624 3.977 1.208 1.384 2.417 2.768 3.452 4.151 1.036 1.384 2.244 2.94 3.28 4.324 1.035 1.556 2.071 2.94 2.934 4.497l2.59 4.669c.862 1.556 1.553 3.286 2.243 4.843.69 1.729 1.38 3.286 1.899 5.015l-2.244-1.21 16.915-5.19L77 79.038l.346-2.94.172-2.94v-5.88l-.172-2.94L77 61.395c-.345-1.902-.69-3.805-1.208-5.707-.863-3.805-2.244-7.437-3.797-11.069-.863-1.73-1.554-3.632-2.59-5.361-.862-1.73-1.898-3.46-2.933-5.188-2.072-3.286-4.316-6.572-6.732-9.513-2.416-3.113-5.178-5.88-7.94-8.647-1.38-1.383-2.934-2.594-4.315-3.978-1.553-1.21-3.107-2.42-4.66-3.632-3.107-2.42-6.387-4.67-9.666-6.744-.518-.346-.69-1.038-.345-1.557.517.346 1.208.346 1.726.692 0-.173 0-.173 0 0z" fill="#E589CC"/><path d="M75.792 72.292s.345-.173.345-.692c0-.52.173-1.21.173-2.076v-3.113c-.173-1.21-.173-2.594-.518-3.977-.518-2.94-1.38-6.4-2.762-9.858-1.38-3.46-3.28-7.091-5.35-10.377-2.072-3.46-4.488-6.572-6.732-9.512-2.416-2.94-4.66-5.534-6.559-7.783-1.899-2.248-3.625-4.15-4.66-5.534-1.208-1.384-1.726-2.076-1.726-2.076-.173-.172-.173-.345 0-.518.172-.173.345-.173.518 0 0 0 .69.692 2.07 1.902 1.21 1.21 3.108 2.94 5.179 5.188 2.071 2.249 4.315 4.843 6.731 7.783 2.244 2.94 4.66 6.4 6.56 9.858 2.07 3.459 3.797 7.264 5.005 10.723a29.622 29.622 0 011.553 5.188c.518 1.73.863 3.286 1.036 4.843.173 1.556.345 2.94.518 4.15 0 1.211.172 2.249.172 3.113v2.768c0 .172-.517.345-.69.345-.518 0-.863-.172-.863-.345zM43.515 12.279c-.518.346-.863.864-1.208 1.556l-.863-1.038c.172-.345.345-.518.69-.864.173-.173.518-.346 1.036-.346.172.173.345.519.345.692 0 .518-.173.864-.345 1.037-.173.173-.518.346-.863.52l-.345.172c-.346 0-.69 0-.863-.346-.173-.346 0-.692.345-.865.69-.172 1.208-.518 1.726-1.037.172-.173.345-.173.518 0 .172.173.172.346-.173.519.173 0 .173 0 0 0zm-2.416-3.805c-.518.346-.863.692-1.209 1.384L39.2 8.82c.173-.173.345-.519.69-.692.173-.173.518-.345 1.036 0 .173.173.345.346.345.692 0 .519-.172.692-.518.865-.172.173-.517.173-.863.346l-.517.173c-.346 0-.69-.173-.69-.52 0-.345.172-.69.344-.69a3.336 3.336 0 001.554-.866c.172-.173.345-.173.518 0 .172-.173.172.173 0 .346z" fill="#fff"/></svg>