<svg width="282" height="325" fill="none" xmlns="http://www.w3.org/2000/svg"><g clip-path="url(#clip0)"><path d="M192.229 246.979L115.97 52.216 79.612 68.06l94.685 187.11 17.932-8.192z" fill="#3C7FCD"/><path d="M201.05 238.224l-41.099 17.882 34.945 29.079 6.154-46.961z" fill="#3C7FCD"/><path d="M168.661 233.901s-.959-1.765-2.561-4.591c-1.587-3.171-3.998-7.238-6.528-12.518-2.711-5.115-5.721-11.276-9.06-17.797-3.339-6.521-6.484-13.55-9.974-20.594-3.309-7.209-6.634-14.074-9.794-20.759-3.16-6.685-5.826-12.832-8.177-18.276-2.351-5.444-4.403-9.841-5.646-12.997-1.244-3.156-2.202-4.92-2.202-4.92-.15-.524.044-1.033.747-1.347.524-.15 1.377.059 1.527.582 0 0 3.489 7.045 8.386 17.424 5.061 10.559 11.696 24.632 18.509 38.541 6.635 14.073 13.448 27.982 18.51 38.541 5.062 10.559 8.207 17.588 8.207 17.588.15.524.12 1.212-.583 1.526-.359.33-1.211.121-1.361-.403zm-60.2-123.234s.014-.345.373-.674c.18-.164.374-.673.897-.823.359-.329.703-.315 1.048-.3l.688.03c.852.209 1.152 1.256.943 2.109 0 0-.015.344-.373.673l-.898.823c-.523.15-.867.135-1.211.12l-.688-.029c-.674-.374-1.153-1.256-.779-1.929zm-4.403-9.842l.538-.494c.179-.164.538-.493.882-.479.344.015.703-.314.868-.135.344.015.508.195.508.195l.165.179c.853.209 1.332 1.091 1.123 1.944 0 0-.015.344-.374.673-.358.33-.717.659-1.241.809-.523.15-1.211.12-1.556.105-.508-.194-.673-.373-.673-.373l-.165-.18c-.479-.882-.614-1.75-.075-2.244zm-6.138-9.57s.014-.344.552-.838l1.256-1.153c.524-.15 1.227-.464 1.571-.45.523-.15.867-.134.867-.134.853.209 1.512.926 1.303 1.78l-.015.343s-.015.344-.553.838c-.359.33-.897.823-1.421.973-.523.15-1.226.465-1.57.45-.524.15-1.032-.044-1.032-.044-.689-.03-1.347-.748-1.138-1.6.164.179 0 0 .18-.165z" fill="#fff"/></g><g clip-path="url(#clip1)"><path d="M176.356 239.165L100.097 44.402 63.739 60.248l94.685 187.109 17.932-8.192z" fill="#F7825E"/><path d="M185.178 230.41l-41.1 17.883 34.945 29.078 6.155-46.961z" fill="#F7825E"/><path d="M152.788 226.088s-.958-1.765-2.56-4.592c-1.588-3.17-3.998-7.238-6.529-12.517-2.711-5.115-5.721-11.277-9.06-17.797-3.339-6.521-6.484-13.55-9.973-20.595-3.31-7.208-6.635-14.073-9.795-20.758-3.159-6.686-5.825-12.832-8.177-18.277-2.351-5.444-4.403-9.841-5.646-12.996-1.243-3.156-2.202-4.921-2.202-4.921-.15-.523.045-1.032.748-1.347.523-.15 1.376.059 1.526.583 0 0 3.489 7.044 8.386 17.423 5.062 10.559 11.696 24.633 18.51 38.541 6.634 14.074 13.448 27.983 18.509 38.542 5.062 10.558 8.207 17.588 8.207 17.588.15.523.12 1.211-.583 1.526-.358.329-1.211.12-1.361-.403zm-60.2-123.235s.015-.344.374-.673c.179-.165.373-.674.897-.824.359-.329.703-.314 1.047-.299l.688.029c.853.209 1.152 1.256.943 2.109 0 0-.014.344-.373.673l-.897.824c-.524.15-.868.135-1.212.12l-.688-.03c-.674-.373-1.153-1.256-.78-1.929zm-4.403-9.841l.538-.494c.18-.165.538-.494.882-.48.344.016.703-.314.868-.134.344.015.509.194.509.194l.164.18c.853.208 1.332 1.09 1.123 1.944 0 0-.015.344-.373.673-.36.33-.718.659-1.242.808-.523.15-1.211.12-1.555.106-.509-.194-.674-.374-.674-.374l-.164-.18c-.48-.881-.614-1.75-.076-2.243zm-6.139-9.571s.015-.344.553-.838l1.256-1.152c.524-.15 1.227-.465 1.57-.45.525-.15.868-.135.868-.135.853.21 1.512.927 1.303 1.78l-.015.344s-.015.344-.553.838c-.359.329-.897.823-1.42.973-.524.15-1.227.464-1.571.45-.524.15-1.032-.045-1.032-.045-.688-.03-1.347-.747-1.138-1.6.165.18 0 0 .18-.165z" fill="#fff"/></g><defs><clipPath id="clip0"><path fill="#fff" transform="rotate(137.46 91.618 161.188)" d="M0 0h105.445v237.921H0z"/></clipPath><clipPath id="clip1"><path fill="#fff" transform="rotate(137.46 85.203 154.192)" d="M0 0h105.445v237.921H0z"/></clipPath></defs></svg>